HIERARCHY
ROOT Hips
{
 OFFSET 0.000000 0.000000 0.000000
 CHANNELS 6 Xposition Yposition Zposition Yrotation Xrotation Zrotation
 JOINT Chest
 {
  OFFSET 0.000000 10.385163 0.011643
  CHANNELS 3 Yrotation Xrotation Zrotation
  JOINT Chest2
  {
   OFFSET 0.000000 11.579334 -0.021150
   CHANNELS 3 Yrotation Xrotation Zrotation
   JOINT Chest3
   {
    OFFSET 0.000000 10.463212 0.000000
    CHANNELS 3 Yrotation Xrotation Zrotation
    JOINT Chest4
    {
     OFFSET 0.000000 10.463212 0.000000
     CHANNELS 3 Yrotation Xrotation Zrotation
     JOINT Neck
     {
      OFFSET 0.000000 14.544862 0.000000
      CHANNELS 3 Yrotation Xrotation Zrotation
      JOINT Head
      {
       OFFSET 0.000000 9.730630 -0.050295
       CHANNELS 3 Yrotation Xrotation Zrotation
       End Site
       {
        OFFSET 0.000000 18.757589 -0.026270
       }
      }
     }
     JOINT RightCollar
     {
      OFFSET -2.985174 8.102313 0.000000
      CHANNELS 3 Yrotation Xrotation Zrotation
      JOINT RightShoulder
      {
       OFFSET -13.558590 0.000000 0.000000
       CHANNELS 3 Yrotation Xrotation Zrotation
       JOINT RightElbow
       {
        OFFSET -28.208579 0.000000 0.000000
        CHANNELS 3 Yrotation Xrotation Zrotation
        JOINT RightWrist
        {
         OFFSET -23.322907 0.000000 0.010349
         CHANNELS 3 Yrotation Xrotation Zrotation
         End Site
         {
          OFFSET -17.603338 0.000000 0.000000
         }
        }
       }
      }
     }
     JOINT LeftCollar
     {
      OFFSET 2.985174 8.102313 0.000000
      CHANNELS 3 Yrotation Xrotation Zrotation
      JOINT LeftShoulder
      {
       OFFSET 13.558590 0.000000 0.000000
       CHANNELS 3 Yrotation Xrotation Zrotation
       JOINT LeftElbow
       {
        OFFSET 28.208579 0.000000 0.000000
        CHANNELS 3 Yrotation Xrotation Zrotation
        JOINT LeftWrist
        {
         OFFSET 23.322907 0.000000 0.010349
         CHANNELS 3 Yrotation Xrotation Zrotation
         End Site
         {
          OFFSET 17.603338 0.000000 0.000000
         }
        }
       }
      }
     }
    }
   }
  }
 }
 JOINT RightHip
 {
  OFFSET -8.341224 -0.057053 -0.005822
  CHANNELS 3 Yrotation Xrotation Zrotation
  JOINT RightKnee
  {
   OFFSET 0.000000 -44.280013 0.005508
   CHANNELS 3 Yrotation Xrotation Zrotation
   JOINT RightAnkle
   {
    OFFSET 0.000000 -43.261728 0.009315
    CHANNELS 3 Yrotation Xrotation Zrotation
    JOINT RightToe
    {
     OFFSET 0.000000 -8.082955 18.257715
     CHANNELS 3 Yrotation Xrotation Zrotation
     End Site
     {
      OFFSET 0.000000 -1.634678 7.189621
     }
    }
   }
  }
 }
 JOINT LeftHip
 {
  OFFSET 8.341224 -0.057053 -0.005822
  CHANNELS 3 Yrotation Xrotation Zrotation
  JOINT LeftKnee
  {
   OFFSET 0.000000 -44.280013 0.005508
   CHANNELS 3 Yrotation Xrotation Zrotation
   JOINT LeftAnkle
   {
    OFFSET 0.000000 -43.261728 0.009315
    CHANNELS 3 Yrotation Xrotation Zrotation
    JOINT LeftToe
    {
     OFFSET 0.000000 -8.082955 18.257715
     CHANNELS 3 Yrotation Xrotation Zrotation
     End Site
     {
      OFFSET 0.000000 -1.634678 7.189621
     }
    }
   }
  }
 }
}
MOTION
Frames: 15
Frame Time: 0.016667
0.000000 95.489079 0.000000 0.000000 -5.826342 0.000000 0.000000 11.116423 0.000000 0.000000 -5.290081 0.000000 0.000000 0.000000 0.000000 0.000000 0.000000 0.000000 0.000000 12.665069 0.000000 0.000000 0.575450 0.000000 0.000000 0.000000 0.000000 0.000000 0.000000 0.000000 2.337306 0.000000 0.000000 -2.337306 0.000000 0.000000 0.000000 0.000000 0.000000 0.000000 0.000000 0.000000 -2.337306 0.000000 0.000000 2.337306 0.000000 0.000000 0.000000 8.578828 0.000000 0.000000 1.905768 0.000000 0.000000 -4.658254 0.000000 0.000000 0.000000 0.000000 0.000000 8.578828 0.000000 0.000000 1.905768 0.000000 0.000000 -4.658254 0.000000 0.000000 0.000000 0.000000
-118.227513 97.129615 375.653016 -126.747649 -7.215056 -0.172110 -0.886867 4.364332 -0.343352 -0.390638 1.940355 -0.144140 -0.390638 1.940355 -0.144141 -0.292493 1.455360 -0.106855 -1.766022 17.840397 0.842943 -3.537911 -3.007651 2.147559 -1.908296 1.689381 6.351597 9.450773 -12.486478 83.609831 -1.299459 21.616861 -4.837663 2.162359 0.388121 1.908985 -1.051503 1.126563 -10.134032 1.438402 -8.694586 -73.836126 -5.299738 24.660106 -4.196457 5.103982 -1.858129 -2.433470 0.039334 15.536273 0.407652 2.014258 -4.088184 0.524524 -12.997799 -6.331752 -2.600755 -0.000000 0.000000 0.000000 14.990729 12.237665 2.586173 1.203727 2.506667 0.015076 -5.906322 -9.502088 0.826303 -0.000000 -0.000000 0.000000
-118.169180 97.138995 375.700487 -126.783279 -7.095373 -0.118621 -0.879727 4.315230 -0.385627 -0.387116 1.918607 -0.163079 -0.387116 1.918607 -0.163079 -0.289798 1.439059 -0.121082 -1.775742 17.865280 0.847442 -3.556598 -2.960955 2.158269 -1.940535 1.693831 6.360604 9.494540 -12.470352 83.631134 -1.348338 21.550773 -4.921250 2.159373 0.382759 1.861778 -1.018433 1.142298 -10.115150 1.431758 -8.610570 -73.868543 -5.398504 24.697297 -4.300409 5.031977 -1.863288 -2.392571 -0.061820 15.340495 0.263562 2.237352 -4.071026 0.662735 -13.107609 -6.324699 -2.684711 0.000000 0.000000 0.000000 14.889756 12.093584 2.443317 1.349033 2.508764 0.064024 -5.939025 -9.462857 0.820000 0.000000 0.000000 0.000000
-118.112569 97.147990 375.743878 -126.815578 -6.989749 -0.073978 -0.870852 4.273261 -0.423597 -0.382865 1.900018 -0.180106 -0.382865 1.900018 -0.180106 -0.286563 1.425127 -0.133877 -1.785327 17.892104 0.853515 -3.575502 -2.910599 2.171760 -1.970777 1.697644 6.370948 9.537126 -12.450995 83.649498 -1.397964 21.492633 -5.000810 2.153965 0.384180 1.826420 -0.987784 1.155335 -10.099022 1.418159 -8.534073 -73.894539 -5.492896 24.736858 -4.398993 4.968201 -1.866906 -2.358641 -0.158298 15.166150 0.136478 2.442576 -4.055053 0.784255 -13.204138 -6.317106 -2.758085 0.000000 -0.000000 0.000000 14.806765 11.963517 2.321427 1.475910 2.507205 0.107414 -5.970434 -9.422991 0.813971 -0.000000 -0.000000 0.000000
-118.058241 97.156576 375.781422 -126.842315 -6.904396 -0.042964 -0.859449 4.241802 -0.454686 -0.377549 1.886084 -0.194079 -0.377549 1.886084 -0.194079 -0.282537 1.414683 -0.144381 -1.794778 17.921319 0.861710 -3.594791 -2.855726 2.189024 -1.998376 1.700439 6.382892 9.582221 -12.427776 83.663006 -1.451827 21.443284 -5.078415 2.143190 0.398368 1.809965 -0.961304 1.164923 -10.087317 1.392462 -8.468278 -73.910741 -5.585932 24.786711 -4.496172 4.919330 -1.866647 -2.339228 -0.252401 15.023588 0.032866 2.624513 -4.039795 0.880910 -13.281028 -6.308768 -2.815281 0.000000 0.000000 0.000000 14.751254 11.853615 2.230465 1.575282 2.499985 0.143155 -6.001215 -9.380682 0.807789 0.000000 -0.000000 0.000000
-118.005635 97.164776 375.814884 -126.865812 -6.833126 -0.020741 -0.846315 4.217489 -0.481488 -0.371499 1.875314 -0.206149 -0.371499 1.875314 -0.206149 -0.277967 1.406611 -0.153458 -1.804083 17.952475 0.871492 -3.614270 -2.797189 2.209082 -2.023978 1.702588 6.396179 9.626135 -12.401325 83.673582 -1.506511 21.401874 -5.152017 2.129967 0.419410 1.805313 -0.937257 1.171823 -10.078367 1.359858 -8.409996 -73.920542 -5.674621 24.838882 -4.588007 4.878685 -1.864998 -2.326813 -0.342167 14.902653 -0.054109 2.788676 -4.025417 0.960697 -13.344672 -6.299755 -2.861847 0.000000 -0.000000 -0.000000 14.713443 11.758065 2.160068 1.656231 2.489185 0.173264 -6.030701 -9.337735 0.801886 0.000000 0.000000 0.000000
-117.954786 97.172281 375.845477 -126.889710 -6.771435 -0.001626 -0.832094 4.197366 -0.507465 -0.364972 1.866402 -0.217853 -0.364972 1.866402 -0.217853 -0.273039 1.399932 -0.162261 -1.813095 17.986158 0.882821 -3.633639 -2.733908 2.231790 -2.047534 1.704553 6.411360 9.656594 -12.370263 83.684071 -1.552563 21.373957 -5.211608 2.120592 0.436303 1.803093 -0.912861 1.175640 -10.069922 1.328941 -8.357203 -73.927708 -5.745448 24.871845 -4.657224 4.834439 -1.867914 -2.305864 -0.417182 14.794500 -0.128319 2.933755 -4.013434 1.030788 -13.400967 -6.289711 -2.903827 0.000000 0.000000 0.000000 14.681897 11.673460 2.100053 1.727594 2.477419 0.198218 -6.055595 -9.298918 0.797861 0.000000 -0.000000 0.000000
-117.905801 97.178803 375.873116 -126.917390 -6.719455 0.016037 -0.815368 4.181065 -0.533871 -0.357324 1.859185 -0.229763 -0.357324 1.859185 -0.229763 -0.267271 1.394524 -0.171220 -1.821836 18.023886 0.896979 -3.653316 -2.663014 2.259458 -2.069318 1.706597 6.429323 9.667203 -12.333333 83.694549 -1.585204 21.365115 -5.251608 2.118960 0.443578 1.801516 -0.887162 1.174995 -10.060862 1.303461 -8.309209 -73.935047 -5.793020 24.876564 -4.694983 4.777185 -1.879741 -2.264832 -0.473038 14.698603 -0.190570 3.058278 -4.005738 1.093172 -13.449360 -6.277505 -2.942875 -0.000000 0.000000 -0.000000 14.655118 11.601001 2.048958 1.790921 2.464842 0.216597 -6.073615 -9.266922 0.797126 -0.000000 -0.000000 0.000000
-117.858574 97.184629 375.897886 -126.945488 -6.677056 0.030603 -0.797551 4.168953 -0.559451 -0.349197 1.853826 -0.241306 -0.349197 1.853826 -0.241306 -0.261143 1.390508 -0.179905 -1.830267 18.064142 0.912688 -3.672840 -2.587371 2.289772 -2.089054 1.708453 6.449179 9.664366 -12.291765 83.704935 -1.609260 21.369846 -5.277721 2.121163 0.446705 1.802407 -0.861123 1.171262 -10.052313 1.279673 -8.266708 -73.939751 -5.822669 24.862077 -4.710093 4.716262 -1.896115 -2.215320 -0.514269 14.615612 -0.240295 3.163731 -4.000314 1.145783 -13.490410 -6.264238 -2.977330 0.000000 0.000000 0.000000 14.634526 11.539535 2.008161 1.844678 2.451334 0.229801 -6.087039 -9.239053 0.798281 0.000000 -0.000000 0.000000
-117.812826 97.190312 375.921254 -126.967508 -6.639340 0.042782 -0.783536 4.159179 -0.583893 -0.342766 1.849506 -0.252305 -0.342766 1.849506 -0.252305 -0.256288 1.387272 -0.188175 -1.838164 18.102958 0.926064 -3.690628 -2.514504 2.315645 -2.105864 1.709787 6.468816 9.655029 -12.247912 83.717820 -1.629659 21.377097 -5.296872 2.121783 0.451045 1.801831 -0.834826 1.168172 -10.045387 1.254920 -8.229765 -73.937162 -5.836923 24.833983 -4.711717 4.667999 -1.909955 -2.176520 -0.543805 14.538424 -0.279256 3.253217 -3.992876 1.189753 -13.531665 -6.252936 -3.008281 0.000000 0.000000 0.000000 14.613138 11.482041 1.971837 1.893072 2.439085 0.242566 -6.099411 -9.211997 0.798707 0.000000 0.000000 0.000000
-117.768516 97.196028 375.943547 -126.979570 -6.604520 0.052175 -0.775983 4.150509 -0.606912 -0.339217 1.845682 -0.262612 -0.339217 1.845682 -0.262612 -0.253598 1.384408 -0.195917 -1.845802 18.140160 0.936083 -3.706859 -2.444771 2.335302 -2.118316 1.710543 6.487240 9.638535 -12.201391 83.734798 -1.647646 21.383965 -5.310080 2.121000 0.458298 1.795990 -0.806838 1.166769 -10.040751 1.228819 -8.200166 -73.925536 -5.829715 24.785005 -4.698091 4.642232 -1.919202 -2.158705 -0.557392 14.464604 -0.304753 3.323703 -3.981371 1.223271 -13.577851 -6.245622 -3.035504 0.000000 0.000000 0.000000 14.586915 11.426146 1.938301 1.937229 2.428116 0.256838 -6.111524 -9.183903 0.796917 0.000000 0.000000 0.000000
-117.725685 97.201601 375.964439 -126.985563 -6.574389 0.059201 -0.772229 4.144177 -0.628784 -0.337363 1.842899 -0.272371 -0.337363 1.842899 -0.272371 -0.252179 1.382325 -0.203243 -1.852923 18.175921 0.943760 -3.721394 -2.377825 2.350518 -2.127843 1.710766 6.505442 9.615555 -12.152568 83.754261 -1.661977 21.393378 -5.316336 2.118630 0.466753 1.788675 -0.778590 1.166014 -10.037737 1.201758 -8.176127 -73.906626 -5.807189 24.722371 -4.671054 4.629162 -1.926030 -2.151619 -0.559351 14.396648 -0.319619 3.378246 -3.967799 1.248117 -13.624238 -6.240263 -3.059220 0.000000 0.000000 0.000000 14.559876 11.374240 1.909213 1.976024 2.418409 0.270665 -6.122586 -9.156622 0.794400 0.000000 0.000000 0.000000
-117.684183 97.207052 375.984419 -126.990632 -6.549417 0.065796 -0.769181 4.142024 -0.650034 -0.335823 1.841973 -0.281840 -0.335823 1.841973 -0.281840 -0.250996 1.381635 -0.210350 -1.858521 18.206792 0.948255 -3.732219 -2.320132 2.359540 -2.137867 1.710282 6.524288 9.595018 -12.104933 83.774009 -1.673838 21.403010 -5.319489 2.108712 0.476672 1.787326 -0.754453 1.166518 -10.035455 1.172253 -8.152364 -73.881009 -5.790110 24.673464 -4.645109 4.615703 -1.929740 -2.143632 -0.565432 14.334825 -0.333835 3.429083 -3.953980 1.270836 -13.664187 -6.233808 -3.081185 0.000000 0.000000 0.000000 14.537142 11.326436 1.883783 2.010291 2.412086 0.282950 -6.133757 -9.132398 0.792990 0.000000 0.000000 0.000000
-117.644025 97.212418 376.003333 -126.994890 -6.530005 0.072603 -0.766331 4.144631 -0.671167 -0.334364 1.843162 -0.291247 -0.334364 1.843162 -0.291247 -0.249873 1.382532 -0.217408 -1.862428 18.230935 0.949719 -3.739135 -2.275115 2.362665 -2.150826 1.708881 6.544151 9.579244 -12.059330 83.794476 -1.684232 21.413044 -5.320263 2.087278 0.488650 1.796792 -0.737728 1.169184 -10.033083 1.137014 -8.125766 -73.846358 -5.787171 24.650450 -4.624902 4.598429 -1.928600 -2.131764 -0.584420 14.279245 -0.351163 3.480809 -3.939616 1.293575 -13.694265 -6.225138 -3.101906 0.000000 0.000000 0.000000 14.518476 11.282238 1.861779 2.041187 2.411558 0.293260 -6.145873 -9.113257 0.793270 0.000000 0.000000 0.000000
-117.605195 97.217662 376.021334 -126.998226 -6.515752 0.078982 -0.764186 4.151419 -0.691678 -0.333217 1.846210 -0.300364 -0.333217 1.846210 -0.300364 -0.248984 1.384822 -0.224247 -1.864832 18.250183 0.948000 -3.742390 -2.239368 2.359618 -2.164279 1.706778 6.564662 9.565909 -12.014919 83.815232 -1.692158 21.423306 -5.317932 2.058294 0.502116 1.812211 -0.725110 1.173122 -10.031440 1.099361 -8.099424 -73.805001 -5.789590 24.641179 -4.605708 4.580781 -1.924349 -2.118971 -0.607527 14.229790 -0.367823 3.528833 -3.924990 1.314175 -13.717911 -6.215360 -3.120869 -0.000000 -0.000000 -0.000000 14.504102 11.242157 1.843403 2.067560 2.414417 0.302026 -6.158097 -9.097173 0.794658 0.000000 0.000000 0.000000
